<svg xmlns="http://www.w3.org/2000/svg" width="512" height="512" viewBox="0 0 512 512" fill="none"><metadata><rdf:RDF xmlns:rdf="http://www.w3.org/1999/02/22-rdf-syntax-ns#" xmlns:dc="http://purl.org/dc/elements/1.1/"><rdf:Description><dc:creator>RealFaviconGenerator</dc:creator><dc:source>https://realfavicongenerator.net</dc:source></rdf:Description></rdf:RDF></metadata><g clip-path="url(#clip0_428_13401)">
<path d="M455.892 535.817C455.892 535.817 477.905 470.012 440.866 330.139C403.828 190.266 270.705 158.032 270.705 158.032" stroke="#647C4C" stroke-width="33.0962"></path>
<path d="M389.214 234.414C369.018 237.328 317.332 258.323 288.094 265.186C258.855 272.05 189.28 263.45 138.482 214.752C106.263 183.864 39.8759 91.8081 37.5463 89.9692C35.2168 88.1303 82.5627 66.7416 125.326 60.1087C164.26 54.0698 222.597 41.8887 301.249 82.9099C315.185 90.1785 343.066 102.46 366.143 173.511C389.221 244.563 409.409 231.501 389.214 234.414Z" fill="#647C4C" stroke="#647C4C" stroke-width="19.8577"></path>
</g><defs>
<clipPath id="clip0_428_13401">
<rect width="512" height="512" fill="white"></rect>
</clipPath>
</defs></svg>